<?xml version="1.0" encoding="utf-8"?>
<!-- Generator: Adobe Illustrator 27.5.0, SVG Export Plug-In . SVG Version: 6.00 Build 0)  -->
<svg version="1.1" xmlns="http://www.w3.org/2000/svg" xmlns:xlink="http://www.w3.org/1999/xlink" x="0px" y="0px"
	 viewBox="0 0 500 500" style="enable-background:new 0 0 500 500;" xml:space="preserve">
<g id="Elements">
	<g id="XMLID_131_">
		<path id="XMLID_217_" style="fill:#7416A8;" d="M249.999,407.707c0,0,33.944-19.895,72.889-50.471H177.111
			C216.056,387.812,249.999,407.707,249.999,407.707z"/>
		<path id="XMLID_218_" style="fill:#2C5EFB;" d="M177.111,357.236h145.777c19.764-15.517,40.814-33.785,59.372-53.602H117.74
			C136.298,323.451,157.347,341.718,177.111,357.236z"/>
		<path id="XMLID_219_" style="fill:#2FAD4C;" d="M117.74,303.634h264.52c15.904-16.983,29.976-35.102,39.835-53.602H77.905
			C87.764,268.532,101.836,286.651,117.74,303.634z"/>
		<path id="XMLID_220_" style="fill:#FCE22B;" d="M64.774,214.248c2.235,11.951,6.821,23.946,13.131,35.784h344.19
			c6.31-11.839,10.895-23.833,13.13-35.784c1.138-6.082,1.904-12.027,2.305-17.817H62.47
			C62.87,202.221,63.636,208.166,64.774,214.248z"/>
		<path id="XMLID_221_" style="fill:#F87316;" d="M62.47,196.431H437.53c1.388-20.056-1.674-38.229-9.404-53.601H71.873
			C64.144,158.202,61.082,176.375,62.47,196.431z"/>
		<path id="XMLID_222_" style="fill:#F7022D;" d="M349.472,93.511c-70.66-10.291-99.473,47.988-99.473,47.988
			s-28.812-58.279-99.472-47.988c-39.869,5.806-65.755,23.665-78.654,49.318h356.253C415.228,117.176,389.342,99.317,349.472,93.511
			z"/>
	</g>
</g>
</svg>
