<svg width="147" height="60" viewBox="0 0 147 60" fill="none" xmlns="http://www.w3.org/2000/svg">
<path d="M126.664 31.8318H131.598C134.05 31.8318 135.686 30.8134 136.143 27.8614C136.297 26.7928 136.659 25.3671 136.659 24.1505C136.659 22.2672 135.431 21.5027 133.235 21.5027H120.447L121.433 15.0938H135.997C140.388 15.0938 144.375 17.0245 144.375 22.6746C144.375 24.5579 143.913 26.6924 143.604 28.4223C142.176 37.1721 133.591 38.2408 130.73 38.2408H125.16L122.674 49.7947C122.055 53.9855 118.444 57.0938 114.188 57.0938L118.858 31.8318H126.664Z" fill="white"/>
<path fill-rule="evenodd" clip-rule="evenodd" d="M120.857 14.4375H135.653C137.882 14.4375 140.061 14.9359 141.693 16.216C143.342 17.5103 144.375 19.5592 144.375 22.5256C144.375 24.1683 144.043 25.9939 143.758 27.5575C143.705 27.8512 143.653 28.1357 143.605 28.408C142.872 32.9843 140.291 35.5693 137.534 36.9955C134.796 38.4125 131.887 38.6878 130.431 38.6878H125.246L122.855 50.0222C122.206 54.4601 118.453 57.75 114.032 57.75H113.531L118.315 31.3613H131.292C132.454 31.3613 133.36 31.1146 134.024 30.5678C134.684 30.0243 135.169 29.1325 135.385 27.7079C135.433 27.3733 135.501 26.9946 135.571 26.6073C135.615 26.365 135.659 26.1194 135.7 25.8792C135.807 25.2353 135.892 24.5961 135.892 24.018C135.892 23.166 135.626 22.6391 135.181 22.306C134.71 21.9536 133.968 21.7639 132.914 21.7639H119.752L120.857 14.4375ZM121.572 15.2838L120.722 20.9176H132.914C134.038 20.9176 134.993 21.1144 135.675 21.6246C136.383 22.154 136.725 22.9657 136.725 24.018C136.725 24.6699 136.631 25.3664 136.521 26.021C136.476 26.2883 136.43 26.544 136.386 26.7888C136.318 27.1605 136.256 27.5069 136.21 27.8302L136.21 27.8324L136.209 27.8345C135.973 29.3933 135.42 30.5081 134.549 31.2253C133.681 31.9395 132.56 32.2077 131.292 32.2077H119.009L114.535 56.8879C118.326 56.6502 121.474 53.7453 122.033 49.8852L122.035 49.8716L124.572 37.8414H130.431C131.811 37.8414 134.576 37.5765 137.156 36.2414C139.717 34.916 142.1 32.538 142.783 28.2692L142.784 28.2662L142.784 28.2632C142.834 27.9773 142.888 27.6829 142.942 27.3824C143.227 25.8159 143.542 24.0829 143.542 22.5256C143.542 19.7793 142.598 17.9957 141.183 16.8857C139.75 15.7615 137.777 15.2838 135.653 15.2838H121.572Z" fill="white"/>
<path d="M114.005 36.8395C113.598 39.3465 111.969 45.2812 104.841 45.2812H93.6439C92.7277 45.2812 87.2812 44.5654 87.2812 38.4762C87.2812 37.8642 87.3818 37.1455 87.4851 36.4297L90.8452 15.0938H98.6854L95.8364 33.1535C95.7331 33.8188 95.6325 34.5852 95.6325 34.894C95.6325 36.1208 95.9398 37.6059 98.0765 37.6059H105.048C105.252 37.6059 106.065 37.6059 106.218 36.6346L109.629 15.0938H117.469L114.008 36.8367L114.005 36.8395Z" fill="white"/>
<path fill-rule="evenodd" clip-rule="evenodd" d="M90.2204 14.4375H98.8381L95.9364 32.8721C95.9364 32.8722 95.9364 32.8721 95.9364 32.8721C95.8324 33.5433 95.7391 34.27 95.7391 34.5377C95.7391 35.1284 95.8165 35.6977 96.0879 36.1125C96.3363 36.4923 96.7963 36.8148 97.7476 36.8148H104.662C104.759 36.8148 104.926 36.8116 105.079 36.7364C105.204 36.6751 105.358 36.5491 105.412 36.2021L108.851 14.4375H117.469L113.938 36.6685L113.934 36.6726C113.713 37.9602 113.183 40.0518 111.833 41.8537C110.42 43.74 108.128 45.2812 104.457 45.2812H93.3512C92.8396 45.2812 91.1794 45.0911 89.6327 44.1039C88.0571 43.0982 86.625 41.2783 86.625 38.0984C86.625 37.4543 86.73 36.7088 86.8315 36.004L86.8319 36.0013L90.2204 14.4375ZM90.9303 15.2747L87.6536 36.1269C87.5503 36.8443 87.4561 37.5266 87.4561 38.0984C87.4561 40.9712 88.725 42.5334 90.0775 43.3967C91.459 44.2785 92.9541 44.4441 93.3512 44.4441H104.457C107.856 44.4441 109.906 43.0357 111.169 41.3495C112.448 39.6425 112.938 37.6231 113.136 36.404L113.158 36.2713L113.16 36.269L116.494 15.2747H109.56L106.233 36.3335C106.233 36.3336 106.233 36.3335 106.233 36.3335C106.136 36.9521 105.81 37.3089 105.443 37.4889C105.111 37.6522 104.78 37.652 104.668 37.6519L97.7476 37.6519C96.5796 37.6519 95.8276 37.2363 95.3939 36.5731C94.983 35.945 94.9081 35.1665 94.9081 34.5377C94.9081 34.1915 95.0143 33.3945 95.1153 32.743L95.1154 32.742L97.8649 15.2747H90.9303Z" fill="white"/>
<path d="M75.9578 45.2784H63.6562L68.4706 15.0938H76.4103L72.7735 37.8614H84.6562C83.9789 42.1342 80.2916 45.2812 75.9578 45.2812" fill="white"/>
<path fill-rule="evenodd" clip-rule="evenodd" d="M68.0218 14.4375H76.9453L73.2548 37.0687H85.3125L85.2342 37.5528C84.5139 42.0033 80.5929 45.2812 75.9846 45.2812V45.2785H63L68.0218 14.4375ZM68.7519 15.2747L64.0027 44.4413H75.9846V44.4441C80.0031 44.4441 83.4462 41.7011 84.2958 37.9059H72.2518L75.9423 15.2747H68.7519Z" fill="white"/>
<path d="M62.8012 23.9967L60.7861 36.8387C59.9828 42.1086 56.7614 45.2812 51.7319 45.2812H40.1104C35.5308 45.2812 33.4688 41.9037 33.4688 38.4756C33.4688 37.8635 33.5681 37.1448 33.6703 36.4288L35.6826 23.5363C36.3865 18.9823 39.0007 15.0938 44.7866 15.0938H56.4081C59.8807 15.0938 63 17.4493 63 21.9499C63 22.5648 62.9006 23.2808 62.8012 23.9967ZM54.8015 27.0149C54.8539 26.6555 55.0527 25.4791 55.0527 24.6621C55.0527 23.4352 54.5006 22.256 52.6373 22.256H44.4388C43.9336 22.256 43.2821 22.562 43.18 23.278L41.5707 33.8683C41.5182 34.2277 41.4685 34.7892 41.4685 35.0952C41.4685 36.6815 42.2718 37.6024 43.8839 37.6024H52.1846C52.6373 37.6024 53.1921 37.3469 53.2943 36.631L54.8015 27.0121V27.0149Z" fill="white"/>
<path fill-rule="evenodd" clip-rule="evenodd" d="M38.4733 17.6455C37.0634 19.0971 36.2468 21.105 35.8979 23.313L33.8538 36.1261C33.7492 36.8436 33.6538 37.5259 33.6538 38.0978C33.6538 39.7208 34.1531 41.3083 35.1797 42.4834C36.1982 43.6492 37.7652 44.444 39.9808 44.444H51.7877C54.2513 44.444 56.2399 43.6861 57.7106 42.3246C59.185 40.9597 60.1735 38.9558 60.5707 36.4066L60.571 36.4048L62.6176 23.6435C62.7196 22.9248 62.8149 22.246 62.8149 21.6712C62.8149 19.539 62.063 17.9501 60.9231 16.8922C59.7779 15.8294 58.2108 15.2747 56.5385 15.2747H44.7316C41.8939 15.2747 39.8738 16.2036 38.4733 17.6455ZM37.8683 17.0636C39.4441 15.4413 41.6911 14.4375 44.7316 14.4375H56.5385C58.3942 14.4375 60.1756 15.0536 61.4969 16.2799C62.8236 17.5112 63.6562 19.3298 63.6562 21.6712C63.6562 22.3119 63.5519 23.0475 63.4529 23.745L63.4497 23.7679L61.4021 36.5349C61.402 36.5352 61.402 36.5355 61.4019 36.5358C60.9829 39.2245 59.927 41.4163 58.2837 42.9375C56.6365 44.4624 54.4338 45.2812 51.7877 45.2812H39.9808C37.5437 45.2812 35.7369 44.3974 34.5447 43.0327C33.3607 41.6772 32.8125 39.8823 32.8125 38.0978C32.8125 37.4536 32.9188 36.708 33.0216 36.0032L33.022 36.0004L35.0668 23.183C35.0668 23.1829 35.0668 23.1828 35.0669 23.1827C35.4332 20.8642 36.302 18.6763 37.8683 17.0636ZM42.6833 22.9291C42.8294 21.9357 43.7462 21.5568 44.3782 21.5568H52.7075C53.7459 21.5568 54.4908 21.8823 54.9662 22.4443C55.4303 22.9929 55.5821 23.7022 55.5821 24.3671C55.5821 25.1131 55.4214 26.1354 55.3478 26.6036C55.3373 26.6701 55.3286 26.7255 55.3224 26.7673L55.3019 26.7658L55.3217 26.7689L53.7908 36.3275C53.7224 36.7913 53.4963 37.1332 53.1917 37.3529C52.8961 37.566 52.5496 37.6485 52.2476 37.6485H43.8145C42.9178 37.6485 42.1797 37.3962 41.6691 36.8642C41.1617 36.3354 40.9399 35.5935 40.9399 34.7377C40.9399 34.4065 40.993 33.8267 41.0482 33.4566L41.0486 33.4542L42.683 22.9311C42.6831 22.9305 42.6832 22.9298 42.6833 22.9291ZM54.4912 26.6371C54.4984 26.589 54.5077 26.5294 54.5185 26.4605C54.594 25.9778 54.7408 25.0387 54.7408 24.3671C54.7408 23.8125 54.6122 23.3259 54.3226 22.9835C54.0443 22.6546 53.5621 22.394 52.7075 22.394H44.3782C43.9842 22.394 43.5781 22.623 43.5157 23.0514L43.5151 23.0552L41.8805 33.5796C41.8804 33.58 41.8803 33.5804 41.8803 33.5808C41.829 33.9251 41.7812 34.4607 41.7812 34.7377C41.7812 35.4586 41.9675 35.9628 42.2776 36.2859C42.5845 36.6058 43.0734 36.8112 43.8145 36.8112H52.2476C52.4055 36.8112 52.5708 36.7667 52.698 36.6749C52.8155 36.5902 52.9228 36.4504 52.9587 36.2041L52.9591 36.2012L54.4908 26.6371L54.4912 26.6371Z" fill="white"/>
<path fill-rule="evenodd" clip-rule="evenodd" d="M14.988 17.165C14.9673 17.2085 14.9461 17.2518 14.9246 17.2949L16.9986 39.8196L17.0476 39.7285L14.988 17.165ZM15.6332 15.1403C15.71 14.6988 15.75 14.2447 15.75 13.7812C15.75 9.43201 12.2242 5.90625 7.875 5.90625C3.52576 5.90625 0 9.43201 0 13.7812C0 15.4751 0.534806 17.0441 1.44478 18.3285L11.2461 45.2812H11.4348H20.6051H21.2932L38.7187 0.348743L37.9699 0L17.7182 37.9822L15.6332 15.1403ZM8.20314 20.375C12.026 20.375 15.125 17.276 15.125 13.4531C15.125 9.6303 12.026 6.53127 8.20314 6.53127C4.38029 6.53127 1.28127 9.6303 1.28127 13.4531C1.28127 17.276 4.38029 20.375 8.20314 20.375ZM8.20314 18.375C10.9214 18.375 13.125 16.1714 13.125 13.4531C13.125 10.7349 10.9214 8.53127 8.20314 8.53127C5.48486 8.53127 3.28127 10.7349 3.28127 13.4531C3.28127 16.1714 5.48486 18.375 8.20314 18.375ZM10.9419 11.5199C11.1704 11.1577 11.0242 10.655 10.6153 10.3971C10.2064 10.1391 9.68974 10.2235 9.46124 10.5857C9.23275 10.9478 9.37897 11.4505 9.78784 11.7085C10.1967 11.9665 10.7134 11.882 10.9419 11.5199ZM7.29889 10.483C7.55447 10.8361 7.45024 11.3478 7.06609 11.6258C6.68193 11.9039 6.16332 11.8431 5.90774 11.4901C5.65215 11.137 5.75638 10.6253 6.14054 10.3472C6.52469 10.0692 7.0433 10.13 7.29889 10.483Z" fill="white"/>
<path d="M14.1578 54.6322C14.7151 55.1383 15.4442 55.4903 16.0966 55.4903C16.8362 55.4903 17.2007 55.1878 17.2007 54.6955C17.2007 54.1784 16.7517 54.0134 16.0623 53.7109L15.0427 53.2571C14.2186 52.9161 13.442 52.2093 13.442 51.0102C13.442 49.646 14.6174 48.5624 16.2551 48.5624C17.1638 48.5624 18.1226 48.942 18.8014 49.6488L17.9034 50.8231C17.383 50.4079 16.8838 50.1658 16.2551 50.1658C15.6264 50.1658 15.2487 50.4436 15.2487 50.9111C15.2487 51.4172 15.7691 51.5932 16.4611 51.882L17.4675 52.311C18.4264 52.7153 19.0312 53.3836 19.0312 54.5442C19.0312 55.9083 17.9403 57.0937 16.0596 57.0937C15.0295 57.0937 13.9386 56.6894 13.125 55.9083L14.1552 54.6322H14.1578Z" fill="white"/>
<path fill-rule="evenodd" clip-rule="evenodd" d="M15.9632 48.8289C14.2904 48.8289 13.1348 49.8384 13.1348 51.0669C13.1348 52.1539 13.8965 52.8011 14.7356 53.1199L14.7389 53.1212L15.8139 53.5606C15.814 53.5606 15.8141 53.5607 15.8142 53.5607C15.855 53.5771 15.8952 53.5932 15.9349 53.6091C16.2411 53.7316 16.5137 53.8407 16.7126 53.9729C16.828 54.0497 16.9263 54.1388 16.9953 54.2501C17.0651 54.3627 17.1001 54.4905 17.1001 54.6372C17.1001 54.9144 16.9857 55.149 16.7522 55.3092C16.5255 55.4648 16.2011 55.5404 15.796 55.5404C15.1067 55.5404 14.3564 55.2211 13.7659 54.7623L12.8547 55.7989C13.6742 56.4762 14.7446 56.8273 15.757 56.8273C17.6809 56.8273 18.7526 55.7235 18.7526 54.4906C18.7526 53.9543 18.6011 53.5411 18.3364 53.2159C18.0702 52.8888 17.6813 52.6409 17.1899 52.4506L17.1894 52.4504L16.1287 52.0352C16.1285 52.0351 16.1284 52.0351 16.1282 52.035C16.0776 52.0156 16.0274 51.9966 15.9778 51.9778C15.6781 51.8643 15.4005 51.7591 15.1925 51.6326C14.9412 51.4799 14.7621 51.2785 14.7621 50.971C14.7621 50.7019 14.8832 50.4807 15.103 50.3315C15.3171 50.1862 15.6144 50.1158 15.9632 50.1158C16.6214 50.1158 17.1502 50.3352 17.6772 50.7017L18.4615 49.7599C17.7795 49.1544 16.8477 48.8289 15.9632 48.8289ZM12.8561 51.0669C12.8561 49.6524 14.1806 48.5624 15.9632 48.5624C16.9565 48.5624 18.0042 48.9427 18.748 49.6539L18.836 49.738L17.7258 51.071L17.6173 50.9915C17.0833 50.6002 16.5858 50.3822 15.9632 50.3822C15.6487 50.3822 15.4152 50.4463 15.2643 50.5488C15.119 50.6474 15.0408 50.7872 15.0408 50.971C15.0408 51.1538 15.1362 51.2827 15.342 51.4078C15.5258 51.5195 15.7742 51.6138 16.0768 51.7286C16.1272 51.7478 16.179 51.7674 16.2324 51.7879L16.2333 51.7882L17.2945 52.2037C17.2945 52.2037 17.2946 52.2037 17.2945 52.2037C17.8146 52.4051 18.2507 52.6768 18.5564 53.0523C18.8637 53.4299 19.0312 53.9026 19.0312 54.4906C19.0312 55.9008 17.8012 57.0937 15.757 57.0937C14.6372 57.0937 13.452 56.6907 12.5666 55.9101L12.4688 55.8238L13.6829 54.4427H13.8028L13.8422 54.4755C14.4131 54.9515 15.151 55.2739 15.796 55.2739C16.1711 55.2739 16.4291 55.203 16.5897 55.0928C16.7436 54.9872 16.8215 54.8368 16.8215 54.6372C16.8215 54.5333 16.7973 54.4533 16.7555 54.3859C16.7129 54.3172 16.6474 54.2541 16.5535 54.1917C16.3807 54.0768 16.1384 53.9797 15.8245 53.8538C15.786 53.8384 15.7464 53.8225 15.7056 53.8061L15.705 53.8058L14.631 53.3669C13.7317 53.0247 12.8561 52.3025 12.8561 51.0669Z" fill="white"/>
<path d="M30.8437 58.8016C30.5422 58.9511 30.0269 59.0624 29.3965 59.0624C27.6614 59.0624 26.4279 58.1768 25.8496 56.9054C24.1008 56.5441 22.9688 55.0363 22.9688 52.7407C22.9688 50.0838 24.4791 48.5624 26.6911 48.5624C28.9031 48.5624 30.4161 50.0974 30.4161 52.7407C30.4161 54.9222 29.3965 56.3947 27.8122 56.8429C28.1904 57.4053 28.9195 57.6036 29.6103 57.6036C29.9639 57.6036 30.2764 57.5411 30.5148 57.4542L30.841 58.8016H30.8437ZM26.6911 55.4112C27.8094 55.4112 28.5166 54.3762 28.5166 52.7434C28.5166 51.1107 27.8122 50.149 26.6911 50.149C25.57 50.149 24.8683 51.1216 24.8683 52.7434C24.8683 54.3653 25.5727 55.4112 26.6911 55.4112Z" fill="white"/>
<path fill-rule="evenodd" clip-rule="evenodd" d="M24.2298 49.9296C23.6085 50.6356 23.2409 51.6806 23.2409 53.0306C23.2409 55.3594 24.3352 56.849 25.9928 57.2062L26.0607 57.2208L26.0891 57.2861C26.6411 58.5519 27.8169 59.4373 29.4867 59.4373C30.0313 59.4373 30.4775 59.3478 30.7625 59.2286L30.4992 58.0936C30.2717 58.1626 29.9989 58.2077 29.6989 58.2077C28.9965 58.2077 28.2139 57.9984 27.8004 57.3573L27.697 57.1969L27.8763 57.1439C29.3755 56.7015 30.363 55.2454 30.363 53.0306C30.363 51.6878 29.9948 50.6427 29.3727 49.9348C28.7517 49.2282 27.8655 48.8438 26.8006 48.8438C25.7353 48.8438 24.8499 49.225 24.2298 49.9296ZM31.0282 59.1672H31.5L30.9844 59.4337C30.6597 59.6016 30.125 59.7187 29.4867 59.7187C27.7392 59.7187 26.478 58.7994 25.8699 57.4665C24.0939 57.0497 22.9688 55.4267 22.9688 53.0306C22.9688 51.6288 23.3509 50.5101 24.0285 49.7402C24.7071 48.9691 25.6696 48.5624 26.8006 48.5624C27.9319 48.5624 28.8949 48.9729 29.5741 49.7456C30.2521 50.517 30.6351 51.6356 30.6351 53.0306C30.6351 55.2446 29.6772 56.803 28.141 57.3526C28.5013 57.7642 29.0985 57.9264 29.6989 57.9264C30.0344 57.9264 30.3287 57.8644 30.55 57.7803L30.6936 57.7257L31.0282 59.1672ZM25.3669 50.9791C25.7051 50.4806 26.1987 50.2056 26.8006 50.2056C27.4019 50.2056 27.8962 50.4773 28.2354 50.9746C28.571 51.4666 28.7491 52.1703 28.7491 53.0334C28.7491 53.8967 28.5702 54.618 28.2358 55.128C27.8983 55.6428 27.4044 55.9371 26.8006 55.9371C26.1961 55.9371 25.7031 55.6395 25.3665 55.1235C25.033 54.6122 24.8547 53.8911 24.8547 53.0334C24.8547 52.1758 25.0322 51.4724 25.3669 50.9791ZM25.5897 51.1407C25.2977 51.5711 25.1269 52.2112 25.1269 53.0334C25.1269 53.8554 25.2983 54.5158 25.5921 54.9661C25.8828 55.4117 26.2946 55.6557 26.8006 55.6557C27.3071 55.6557 27.7195 55.414 28.0106 54.9701C28.3048 54.5213 28.477 53.8611 28.477 53.0334C28.477 52.2055 28.3054 51.5656 28.013 51.1368C27.7242 50.7133 27.3123 50.487 26.8006 50.487C26.2894 50.487 25.8781 50.7156 25.5897 51.1407Z" fill="white"/>
<path d="M34.7812 48.5624H36.644V53.2522C36.644 54.8986 37.1518 55.4614 38.0763 55.4614C39.0008 55.4614 39.5444 54.8958 39.5444 53.2522V48.5624H41.3437V53.0591C41.3437 55.8729 40.2178 57.0937 38.0763 57.0937C35.9348 57.0937 34.784 55.8729 34.784 53.0591V48.5624H34.7812Z" fill="white"/>
<path fill-rule="evenodd" clip-rule="evenodd" d="M34.9111 48.698V48.5624H36.8319V53.2388C36.8319 54.0273 36.9535 54.527 37.1621 54.8275C37.363 55.117 37.6596 55.2421 38.0744 55.2421C38.4894 55.2421 38.7958 55.1161 39.0053 54.8246C39.2216 54.5237 39.3514 54.0244 39.3514 53.2388V48.5624H41.3437V53.0517C41.3437 54.4285 41.0712 55.4431 40.5148 56.1143C39.9546 56.7901 39.1273 57.0937 38.0744 57.0937C37.0216 57.0937 36.1887 56.7902 35.6226 56.1149C35.06 55.4438 34.7812 54.4291 34.7812 53.0517V48.698H34.9111ZM35.0462 48.8335V53.0517C35.0462 54.3987 35.3198 55.3374 35.8237 55.9384C36.3239 56.5351 37.0713 56.8226 38.0744 56.8226C39.0775 56.8226 39.8186 56.5352 40.3128 55.9389C40.8109 55.338 41.0788 54.3994 41.0788 53.0517V48.8335H39.6164V53.2388C39.6164 54.0444 39.4852 54.6146 39.2187 54.9853C38.9453 55.3655 38.547 55.5132 38.0744 55.5132C37.6017 55.5132 37.2108 55.366 36.9461 54.9845C36.689 54.614 36.5669 54.0442 36.5669 53.2388V48.8335H35.0462Z" fill="white"/>
<path d="M50.0848 55.0664H47.6213L47.1275 57.0937H45.2812L47.8065 48.5624H49.9748L52.5 57.0937H50.5786L50.0848 55.0664ZM49.7145 53.5609L49.5186 52.7767C49.2958 51.927 49.0865 50.9177 48.8665 50.028H48.8182C48.633 50.9319 48.413 51.927 48.1902 52.7767L47.9943 53.5609H49.7198H49.7145Z" fill="white"/>
<path fill-rule="evenodd" clip-rule="evenodd" d="M47.3346 48.5624H49.7904L52.5 57.0937H50.2073L49.6946 55.1319H47.3524L46.8397 57.0937H44.625L47.3346 48.5624ZM47.539 48.8384L45.0047 56.8178H46.624L47.1367 54.856H49.9103L50.423 56.8178H52.1203L49.586 48.8384H47.539ZM48.375 49.9806H48.6449L48.6722 50.0835C48.7728 50.4626 48.8699 50.8583 48.9666 51.2523C49.0924 51.765 49.2175 52.2749 49.3487 52.7414L49.3492 52.743L49.5526 53.5018L49.4235 53.5357V53.6751H47.4507L47.701 52.7414C47.9313 51.9228 48.1591 50.9627 48.3511 50.0893L48.375 49.9806ZM49.2368 53.3992H47.813L47.9697 52.8146C48.1617 52.1319 48.3516 51.3535 48.5203 50.6095C48.578 50.838 48.6356 51.0725 48.6933 51.3074C48.8209 51.8269 48.9491 52.3488 49.0801 52.8146L49.2368 53.3992Z" fill="white"/>
<path d="M56.8141 54.6322C57.3714 55.1383 58.1004 55.4903 58.7529 55.4903C59.4925 55.4903 59.857 55.1878 59.857 54.6955C59.857 54.1784 59.4079 54.0134 58.7185 53.7109L57.6989 53.2571C56.8748 52.9161 56.0982 52.2093 56.0982 51.0102C56.0982 49.646 57.2737 48.5624 58.9113 48.5624C59.82 48.5624 60.7788 48.942 61.4577 49.6488L60.5596 50.8231C60.0392 50.4079 59.54 50.1658 58.9113 50.1658C58.2827 50.1658 57.905 50.4436 57.905 50.9111C57.905 51.4172 58.4253 51.5932 59.1174 51.882L60.1238 52.311C61.0826 52.7153 61.6875 53.3836 61.6875 54.5442C61.6875 55.9083 60.5966 57.0937 58.7159 57.0937C57.6857 57.0937 56.5948 56.6894 55.7812 55.9083L56.8114 54.6322H56.8141Z" fill="white"/>
<path fill-rule="evenodd" clip-rule="evenodd" d="M59.2757 48.8289C57.6029 48.8289 56.4473 49.8384 56.4473 51.0669C56.4473 52.1539 57.209 52.8011 58.0481 53.1199L58.0514 53.1212L59.1264 53.5606C59.1265 53.5606 59.1266 53.5607 59.1267 53.5607C59.1674 53.5771 59.2077 53.5932 59.2474 53.6091C59.5536 53.7316 59.8262 53.8407 60.0251 53.9729C60.1405 54.0497 60.2388 54.1388 60.3078 54.2501C60.3776 54.3627 60.4126 54.4905 60.4126 54.6372C60.4126 54.9144 60.2982 55.149 60.0647 55.3092C59.838 55.4648 59.5136 55.5404 59.1085 55.5404C58.4192 55.5404 57.6689 55.2211 57.0784 54.7623L56.1672 55.7989C56.9867 56.4762 58.0571 56.8273 59.0695 56.8273C60.9934 56.8273 62.0651 55.7235 62.0651 54.4906C62.0651 53.9543 61.9136 53.5411 61.6489 53.2159C61.3827 52.8888 60.9938 52.6409 60.5024 52.4506L60.5019 52.4504L59.4412 52.0352C59.4411 52.0351 59.4409 52.0351 59.4407 52.035C59.3901 52.0156 59.3399 51.9966 59.2903 51.9778C58.9906 51.8643 58.713 51.7591 58.505 51.6326C58.2537 51.4799 58.0746 51.2785 58.0746 50.971C58.0746 50.7019 58.1957 50.4807 58.4155 50.3315C58.6296 50.1862 58.9269 50.1158 59.2757 50.1158C59.9339 50.1158 60.4627 50.3352 60.9897 50.7017L61.774 49.7599C61.092 49.1544 60.1602 48.8289 59.2757 48.8289ZM56.1686 51.0669C56.1686 49.6524 57.4931 48.5624 59.2757 48.5624C60.269 48.5624 61.3167 48.9427 62.0605 49.6539L62.1485 49.738L61.0383 51.071L60.9298 50.9915C60.3958 50.6002 59.8983 50.3822 59.2757 50.3822C58.9612 50.3822 58.7277 50.4463 58.5768 50.5488C58.4315 50.6474 58.3533 50.7872 58.3533 50.971C58.3533 51.1538 58.4487 51.2827 58.6545 51.4078C58.8383 51.5195 59.0867 51.6138 59.3893 51.7286C59.4397 51.7478 59.4915 51.7674 59.5449 51.7879L59.5458 51.7882L60.607 52.2037C60.607 52.2037 60.6071 52.2037 60.607 52.2037C61.1271 52.4051 61.5632 52.6768 61.8689 53.0523C62.1762 53.4299 62.3437 53.9026 62.3437 54.4906C62.3437 55.9008 61.1137 57.0937 59.0695 57.0937C57.9497 57.0937 56.7645 56.6907 55.8791 55.9101L55.7812 55.8238L56.9954 54.4427H57.1153L57.1547 54.4755C57.7256 54.9515 58.4635 55.2739 59.1085 55.2739C59.4836 55.2739 59.7416 55.203 59.9022 55.0928C60.0561 54.9872 60.134 54.8368 60.134 54.6372C60.134 54.5333 60.1098 54.4533 60.068 54.3859C60.0254 54.3172 59.9599 54.2541 59.866 54.1917C59.6932 54.0768 59.4509 53.9797 59.137 53.8538C59.0985 53.8384 59.0589 53.8225 59.0181 53.8061L59.0175 53.8058L57.9435 53.3669C57.0442 53.0247 56.1686 52.3025 56.1686 51.0669Z" fill="white"/>
<path d="M66.2812 48.5624H68.148V51.8472H70.988V48.5624H72.8437V57.0937H70.988V53.5352H68.148V57.0937H66.2812V48.5624Z" fill="white"/>
<path fill-rule="evenodd" clip-rule="evenodd" d="M66.2812 48.5624H68.3368V51.741H70.7987V48.5624H72.8437V57.0937H70.7987V53.6503H68.3368V57.0937H66.2812V48.5624ZM66.5451 48.8384V56.8178H68.0729V53.3744H71.0626V56.8178H72.5799V48.8384H71.0626V52.0169H68.0729V48.8384H66.5451Z" fill="white"/>
<path d="M86.6601 48.5624C87.6949 48.5624 88.5629 49.0683 89.1248 49.6347L88.0899 50.7839C87.6699 50.4045 87.2721 50.1653 86.6851 50.1653C85.5223 50.1653 84.6154 51.1633 84.6154 52.8157C84.6154 54.4681 85.4193 55.4908 86.6322 55.4908C87.3221 55.4908 87.8062 55.1994 88.2151 54.7595L89.25 55.8812C88.5601 56.6758 87.6421 57.0937 86.6072 57.0937C84.4484 57.0937 82.6875 55.642 82.6875 52.8789C82.6875 50.1158 84.5124 48.5624 86.6573 48.5624H86.6601Z" fill="white"/>
<path fill-rule="evenodd" clip-rule="evenodd" d="M84.0398 49.8757C83.377 50.5583 82.9526 51.5688 82.9526 52.8773C82.9526 54.187 83.3624 55.172 84.0103 55.829C84.6586 56.4865 85.5567 56.8273 86.5549 56.8273C87.4635 56.8273 88.272 56.4706 88.8949 55.7872L88.0845 54.8941C87.6959 55.2825 87.2258 55.5409 86.5787 55.5409C85.9589 55.5409 85.4394 55.2732 85.0786 54.7923C84.7205 54.315 84.5244 53.6361 84.5244 52.8161C84.5244 51.9924 84.7468 51.3189 85.1244 50.8484C85.5033 50.3762 86.0338 50.1153 86.6291 50.1153C87.1858 50.1153 87.5768 50.3308 87.9567 50.6598L88.771 49.7405C88.2535 49.247 87.4949 48.8288 86.6053 48.8288H86.6026C85.6136 48.8288 84.7031 49.1925 84.0398 49.8757ZM83.8501 49.6897C84.5671 48.9511 85.5479 48.5624 86.6026 48.5624H86.6053C87.6358 48.5624 88.495 49.0741 89.0484 49.6411L89.1351 49.73L87.9774 51.0371L87.8783 50.946C87.4904 50.5898 87.142 50.3816 86.6291 50.3816C86.1164 50.3816 85.6609 50.6041 85.3307 51.0156C84.9992 51.4287 84.7895 52.039 84.7895 52.8161C84.7895 53.5968 84.9765 54.2137 85.2903 54.632C85.6015 55.0467 86.0428 55.2745 86.5787 55.2745C87.1899 55.2745 87.6179 55.0154 87.9894 54.6091L88.0874 54.5019L89.25 55.7832L89.1736 55.8726C88.4915 56.6714 87.5802 57.0937 86.5549 57.0937C85.4961 57.0937 84.5268 56.7313 83.822 56.0165C83.1166 55.3011 82.6875 54.2445 82.6875 52.8773C82.6875 51.509 83.1325 50.4286 83.8501 49.6897Z" fill="white"/>
<path d="M93.1875 48.5624H95.0503V53.2522C95.0503 54.8986 95.5581 55.4614 96.4825 55.4614C97.407 55.4614 97.9507 54.8958 97.9507 53.2522V48.5624H99.75V53.0591C99.75 55.8729 98.6241 57.0937 96.4825 57.0937C94.341 57.0937 93.1903 55.8729 93.1903 53.0591V48.5624H93.1875Z" fill="white"/>
<path fill-rule="evenodd" clip-rule="evenodd" d="M93.3173 48.698V48.5624H95.2381V53.2388C95.2381 54.0273 95.3598 54.527 95.5683 54.8275C95.7692 55.117 96.0659 55.2421 96.4807 55.2421C96.8956 55.2421 97.202 55.1161 97.4115 54.8246C97.6279 54.5237 97.7577 54.0244 97.7577 53.2388V48.5624H99.75V53.0517C99.75 54.4285 99.4775 55.4431 98.9211 56.1143C98.3609 56.7901 97.5335 57.0937 96.4807 57.0937C95.4279 57.0937 94.5949 56.7902 94.0288 56.1149C93.4662 55.4438 93.1875 54.4291 93.1875 53.0517V48.698H93.3173ZM93.4524 48.8335V53.0517C93.4524 54.3987 93.7261 55.3374 94.2299 55.9384C94.7301 56.5351 95.4776 56.8226 96.4807 56.8226C97.4837 56.8226 98.2248 56.5352 98.719 55.9389C99.2171 55.338 99.4851 54.3994 99.4851 53.0517V48.8335H98.0226V53.2388C98.0226 54.0444 97.8915 54.6146 97.6249 54.9853C97.3516 55.3655 96.9533 55.5132 96.4807 55.5132C96.0079 55.5132 95.6171 55.366 95.3523 54.9845C95.0952 54.614 94.9732 54.0442 94.9732 53.2388V48.8335H93.4524Z" fill="white"/>
<path d="M104.344 48.5624H107.512C109.403 48.5624 110.906 49.2439 110.906 51.3111C110.906 53.3784 109.348 54.2024 107.512 54.2024H106.314V57.0937H104.344V48.5624ZM107.393 52.6712C108.472 52.6712 108.991 52.2008 108.991 51.3111C108.991 50.4215 108.432 50.0936 107.393 50.0936H106.314V52.6712H107.393Z" fill="white"/>
<path fill-rule="evenodd" clip-rule="evenodd" d="M104.344 48.5624H107.517C108.435 48.5624 109.282 48.729 109.902 49.1678C110.53 49.6126 110.906 50.3228 110.906 51.3602C110.906 52.3986 110.517 53.1406 109.886 53.6189C109.261 54.0928 108.414 54.2959 107.517 54.2959H106.508V57.0937H104.344V48.5624ZM104.622 48.8384V56.8178H106.23V54.02H107.517C108.378 54.02 109.157 53.8245 109.717 53.3996C110.272 52.979 110.628 52.3221 110.628 51.3602C110.628 50.3973 110.285 49.7775 109.741 49.3925C109.188 49.0015 108.409 48.8384 107.517 48.8384H104.622ZM106.23 50.0441H107.403C107.91 50.0441 108.329 50.1239 108.623 50.3368C108.927 50.5567 109.073 50.8992 109.073 51.3602C109.073 51.8172 108.94 52.1895 108.647 52.4447C108.359 52.6969 107.937 52.8143 107.403 52.8143H106.23V50.0441ZM106.508 50.32V52.5384H107.403C107.902 52.5384 108.246 52.4281 108.464 52.2375C108.679 52.0498 108.795 51.7641 108.795 51.3602C108.795 50.9604 108.672 50.7137 108.459 50.5598C108.237 50.3989 107.891 50.32 107.403 50.32H106.508Z" fill="white"/>
<path d="M44.625 0H46.7682L47.4065 4.60448C47.5331 5.63127 47.6624 6.67269 47.7889 7.71411H47.8467C48.0173 6.67269 48.2016 5.63127 48.3859 4.60448L49.3791 0H51.1537L52.1606 4.60448C52.345 5.60202 52.5293 6.65806 52.7136 7.71411H52.7714C52.8842 6.65806 53.0135 5.61664 53.1401 4.60448L53.7784 0H55.7812L54.1333 9.84375H51.5058L50.5979 5.37384C50.4549 4.6191 50.3283 3.82049 50.2293 3.095H50.1715C50.0587 3.82049 49.9431 4.6191 49.8028 5.37384L48.9224 9.84375H46.339L44.625 0Z" fill="white"/>
<path fill-rule="evenodd" clip-rule="evenodd" d="M44.625 0H46.9827L47.6198 4.59518C47.6512 4.85004 47.6828 5.10585 47.7145 5.36238C47.7772 5.86996 47.8402 6.38032 47.9029 6.89156C48.0338 6.11901 48.1706 5.34864 48.3074 4.587L48.3079 4.58443L49.2969 0H51.2331L52.2357 4.58385L52.2361 4.58625C52.3731 5.32714 52.51 6.10114 52.6468 6.88254C52.7353 6.10728 52.8304 5.3425 52.9239 4.59492L52.9242 4.59292L53.561 0H55.7812L54.133 9.84375H51.3612L50.4562 5.38886C50.3615 4.88933 50.2742 4.37031 50.1978 3.86739C50.1206 4.36928 50.0388 4.88882 49.9459 5.38834L49.9457 5.38991L49.0683 9.84375H46.3393L44.625 0ZM44.9462 0.284091L46.5616 9.55966H48.8512L49.6838 5.33325C49.6838 5.33299 49.6839 5.33272 49.6839 5.33246C49.7909 4.75735 49.8828 4.15633 49.9708 3.58165C49.9945 3.42704 50.0178 3.27434 50.0411 3.12456L50.0596 3.00568H50.3447L50.3613 3.12732C50.4572 3.82939 50.5796 4.602 50.718 5.33177C50.718 5.33209 50.7181 5.33241 50.7181 5.33273L51.5769 9.55966H53.9091L55.4623 0.284091H53.7917L53.1888 4.63236C53.1888 4.63268 53.1887 4.63301 53.1887 4.63334C53.0658 5.61606 52.9404 6.62584 52.831 7.64955L52.8176 7.77557H52.531L52.5108 7.65944C52.3319 6.63459 52.1531 5.61059 51.9744 4.64342L51.0209 0.284091H49.5098L48.5694 4.64284C48.3906 5.63901 48.2119 6.64858 48.0465 7.65789L48.0272 7.77557H47.7413L47.7262 7.65172C47.6348 6.89903 47.5418 6.14639 47.4495 5.39944C47.4179 5.14329 47.3863 4.8878 47.355 4.63322L46.752 0.284091H44.9462Z" fill="white"/>
<path d="M62.3333 7.50348H59.6458L59.1094 9.84375H57.0938L59.849 0H62.2135L64.9687 9.84375H62.8724L62.3359 7.50348H62.3333ZM61.9297 5.76876L61.7135 4.8619C61.4714 3.88192 61.2422 2.71764 61 1.69084H60.9453C60.7448 2.73226 60.5026 3.87899 60.2604 4.8619L60.0443 5.76876H61.9271H61.9297Z" fill="white"/>
<path fill-rule="evenodd" clip-rule="evenodd" d="M59.6047 0H62.4578L65.625 9.84375H62.974L62.3751 7.57102H59.5973L58.9984 9.84375H56.4375L59.6047 0ZM59.8181 0.284091L56.8337 9.55966H58.7731L59.372 7.28693H62.6004L63.1993 9.55966H65.2288L62.2444 0.284091H59.8181ZM60.818 1.64205H61.1082L61.1369 1.74771C61.2598 2.20114 61.3779 2.67447 61.4953 3.14492C61.6398 3.72366 61.7831 4.29804 61.933 4.82564L61.9334 4.8269L62.2236 5.88636H59.74L60.0306 4.82574C60.3 3.87461 60.5698 2.76376 60.7932 1.75406L60.818 1.64205ZM60.9748 2.27028C60.7729 3.15424 60.5421 4.08506 60.311 4.90098C60.3109 4.90116 60.3109 4.90134 60.3108 4.90153L60.1188 5.60227H61.8448L61.6529 4.90163C61.6528 4.90141 61.6527 4.90119 61.6527 4.90097C61.5036 4.37618 61.3569 3.78871 61.2103 3.2019C61.1319 2.88794 61.0535 2.57416 60.9748 2.27028Z" fill="white"/>
<path d="M72.3053 9.84375L70.4051 6.29532H69.1883V9.84375H66.9375V0H70.5111C72.6088 0 74.3411 0.725483 74.3411 3.06575C74.3411 4.51379 73.6252 5.43527 72.5764 5.90332L74.8125 9.84375H72.3053ZM69.1883 4.52842H70.3285C71.4981 4.52842 72.1374 4.03111 72.1374 3.06282C72.1374 2.09454 71.4981 1.76398 70.3285 1.76398H69.1883V4.52549V4.52842Z" fill="white"/>
<path fill-rule="evenodd" clip-rule="evenodd" d="M66.9375 0H70.4788C71.4891 0 72.4337 0.177485 73.1294 0.6613C73.8344 1.15162 74.2641 1.94288 74.2641 3.11932C74.2641 4.5174 73.6117 5.44216 72.6403 5.93782L74.8125 9.84375H72.1022L70.2937 6.39773H69.3601V9.84375H66.9375V0ZM67.2179 0.284091V9.55966H69.0797V6.11364H70.4621L72.2707 9.55966H74.3327L72.2469 5.80921L72.3869 5.74544C73.336 5.31327 73.9838 4.46833 73.9838 3.11932C73.9838 2.02303 73.5892 1.32566 72.9707 0.895518C72.3429 0.458879 71.465 0.284091 70.4788 0.284091H67.2179ZM69.0797 1.71307H70.305C70.8689 1.71307 71.3344 1.79317 71.6613 2.01518C72.0006 2.2456 72.1668 2.6114 72.1668 3.11648C72.1668 3.61991 72.0023 4.02048 71.6713 4.29127C71.3455 4.55783 70.8786 4.68182 70.305 4.68182H69.0797V1.71307ZM69.3601 1.99716V4.39773H70.305C70.8446 4.39773 71.2385 4.28024 71.4952 4.07024C71.7467 3.86446 71.8864 3.55338 71.8864 3.11648C71.8864 2.68121 71.7484 2.41633 71.5052 2.25116C71.2496 2.07757 70.8542 1.99716 70.305 1.99716H69.3601Z" fill="white"/>
<path d="M77.3803 7.00947C78.0611 7.59101 78.9516 8.00034 79.753 8.00034C80.6579 8.00034 81.1031 7.65029 81.1031 7.08287C81.1031 6.4844 80.5545 6.29526 79.71 5.94521L78.4661 5.42013C77.4579 5.02774 76.5099 4.21189 76.5099 2.82581C76.5099 1.25341 77.9491 0 79.9484 0C81.0601 0 82.2321 0.437563 83.0622 1.25341L81.9649 2.60844C81.3272 2.12853 80.7211 1.85188 79.9484 1.85188C79.1757 1.85188 78.7189 2.1737 78.7189 2.71007C78.7189 3.2916 79.3566 3.49768 80.2012 3.83079L81.4306 4.32481C82.6026 4.79061 83.3437 5.5641 83.3437 6.9022C83.3437 8.4746 82.0109 9.84375 79.7128 9.84375C78.4518 9.84375 77.1189 9.37796 76.125 8.4746L77.3861 7.00383L77.3803 7.00947Z" fill="white"/>
<path fill-rule="evenodd" clip-rule="evenodd" d="M79.9648 0.274428C78.11 0.274428 76.8189 1.45138 76.8189 2.88424C76.8189 4.15495 77.6676 4.9092 78.6 5.27867L78.6019 5.27939L79.7904 5.79025C79.7906 5.79031 79.7907 5.79037 79.7908 5.79043C79.8372 5.80999 79.8829 5.82916 79.928 5.84803C80.2663 5.98976 80.5651 6.11494 80.7829 6.26643C80.9093 6.35441 81.0162 6.45604 81.0909 6.58237C81.1664 6.71004 81.2044 6.85522 81.2044 7.02262C81.2044 7.33838 81.0802 7.60469 80.8268 7.78686C80.58 7.96424 80.2251 8.05173 79.7783 8.05173C79.0128 8.05173 78.1819 7.67724 77.5298 7.145L76.5047 8.36235C77.4156 9.15831 78.609 9.56932 79.7399 9.56932C81.8747 9.56932 83.0695 8.28432 83.0695 6.84699C83.0695 6.2233 82.9005 5.74075 82.6047 5.36052C82.3073 4.97826 81.8738 4.68928 81.3286 4.46866L81.3281 4.46847L80.155 3.98855C80.1549 3.9885 80.1548 3.98845 80.1547 3.98839C80.1003 3.96657 80.0464 3.94515 79.9932 3.92399C79.6598 3.7915 79.3525 3.66937 79.1225 3.52277C78.8474 3.34747 78.6538 3.11879 78.6538 2.77173C78.6538 2.4674 78.7836 2.21687 79.0216 2.04729C79.2541 1.88167 79.579 1.80025 79.9648 1.80025C80.6975 1.80025 81.2791 2.05403 81.8657 2.48325L82.753 1.36766C81.9939 0.656361 80.9533 0.274428 79.9648 0.274428ZM77.5217 6.94098L77.4214 6.84871L77.3118 6.95825L77.3214 6.96663L76.125 8.38733L76.2211 8.47629C77.1969 9.3793 78.5034 9.84375 79.7399 9.84375C81.9933 9.84375 83.3437 8.46679 83.3437 6.84699C83.3437 6.16989 83.1589 5.62607 82.8211 5.19195C82.485 4.75989 82.0053 4.44653 81.4317 4.21436C81.4316 4.21432 81.4315 4.21429 81.4314 4.21425L80.258 3.7342L80.2572 3.73387C80.2006 3.71114 80.1454 3.68918 80.0917 3.6678C79.7549 3.53373 79.476 3.42272 79.2698 3.29129C79.0389 3.14414 78.928 2.98998 78.928 2.77173C78.928 2.55464 79.0162 2.38804 79.1807 2.27084C79.3507 2.14969 79.6127 2.07468 79.9648 2.07468C80.6627 2.07468 81.2128 2.32677 81.8067 2.78187L81.9136 2.86375L83.1214 1.34527L83.0348 1.25865C82.2149 0.438311 81.0604 0 79.9648 0C78.0017 0 76.5446 1.25997 76.5446 2.88424C76.5446 4.30754 77.5049 5.13934 78.4972 5.53308L79.683 6.04275L79.6838 6.04311C79.7305 6.0628 79.7759 6.08186 79.8201 6.1004C80.1655 6.24535 80.4342 6.35811 80.6263 6.49175C80.7316 6.565 80.8061 6.63969 80.8548 6.7221C80.9028 6.80316 80.9302 6.89914 80.9302 7.02262C80.9302 7.25848 80.8419 7.43811 80.6668 7.56398C80.485 7.69465 80.1954 7.7773 79.7783 7.7773C79.0559 7.7773 78.2363 7.39873 77.6028 6.84771L77.5217 6.94098Z" fill="white"/>
<path d="M90.3343 7.50348H87.4219L86.8406 9.84375H84.6562L87.6392 0H90.2017L93.1875 9.84375H90.9157L90.3343 7.50348ZM89.8969 5.76876L89.6627 4.8619C89.4002 3.88192 89.1519 2.71764 88.8894 1.69084H88.8302C88.6129 2.73226 88.3504 3.87899 88.0879 4.8619L87.8537 5.76876H89.8941H89.8969Z" fill="white"/>
<path fill-rule="evenodd" clip-rule="evenodd" d="M87.5954 0H90.2456L93.1875 9.84375H90.725L90.1687 7.57102H87.5912L87.035 9.84375H84.6562L87.5954 0ZM87.7936 0.284091L85.0241 9.55966H86.8256L87.3819 7.28693H90.3781L90.9343 9.55966H92.8195L90.0474 0.284091H87.7936ZM88.7251 1.64205H88.9947L89.0213 1.74771C89.1355 2.20114 89.2452 2.67447 89.3543 3.14492C89.4884 3.72366 89.6216 4.29804 89.7608 4.82564L89.7611 4.8269L90.0308 5.88636H87.7238L87.9937 4.82574C88.244 3.87461 88.4945 2.76376 88.7021 1.75406L88.7251 1.64205ZM88.8708 2.27029C88.6832 3.15424 88.4688 4.08505 88.2542 4.90096C88.2541 4.90115 88.2541 4.90134 88.254 4.90153L88.0757 5.60227H89.6789L89.5006 4.90163C89.5005 4.90142 89.5005 4.90122 89.5004 4.90101C89.362 4.37621 89.2257 3.78872 89.0895 3.2019C89.0166 2.88794 88.9438 2.57417 88.8708 2.27029Z" fill="white"/>
<path d="M93.8465 0H95.9892L96.6273 4.60448C96.7538 5.63127 96.8831 6.67269 97.0096 7.71411H97.0674C97.2379 6.67269 97.4222 5.63127 97.6065 4.60448L98.5995 0H100.374L101.38 4.60448C101.565 5.60202 101.749 6.65806 101.933 7.71411H101.991C102.104 6.65806 102.233 5.61664 102.359 4.60448L102.998 0H105L103.352 9.84375H100.726L99.818 5.37384C99.6749 4.6191 99.5484 3.82049 99.4494 3.095H99.3916C99.2788 3.82049 99.1633 4.6191 99.023 5.37384L98.1429 9.84375H95.5601L93.8438 0H93.8465Z" fill="white"/>
<path fill-rule="evenodd" clip-rule="evenodd" d="M93.8438 0H96.3424L97.0168 4.59518C97.0502 4.85056 97.0836 5.10691 97.1173 5.36397C97.1836 5.87102 97.2502 6.38085 97.3165 6.89155C97.4551 6.11901 97.5999 5.34864 97.7447 4.587L97.7452 4.58443L98.7921 0H100.842L101.903 4.58385L101.904 4.58625C102.048 5.32714 102.193 6.10113 102.338 6.88253C102.432 6.10727 102.533 5.34249 102.632 4.59492L102.632 4.59292L103.306 0H105.656L103.911 9.84375H100.977L100.019 5.38886C99.9191 4.88934 99.8267 4.37032 99.7458 3.86739C99.6641 4.36928 99.5775 4.88882 99.4792 5.38834L99.4789 5.38991L98.5501 9.84375H95.6614L93.8438 0ZM94.1839 0.284091L95.8966 9.55966H98.3203L99.2017 5.33325C99.2017 5.33299 99.2018 5.33272 99.2019 5.33246C99.315 4.75735 99.4124 4.15633 99.5055 3.58165C99.5306 3.42704 99.5553 3.27434 99.58 3.12456L99.5995 3.00568H99.9013L99.9189 3.12732C100.02 3.82939 100.15 4.60201 100.296 5.33177C100.296 5.33209 100.297 5.33241 100.297 5.33273L101.206 9.55966H103.674L105.319 0.284091H103.55L102.912 4.63236C102.912 4.63268 102.912 4.63301 102.912 4.63334C102.782 5.61606 102.649 6.62584 102.533 7.64955L102.519 7.77557H102.216L102.194 7.65816C102.005 6.63371 101.816 5.6102 101.626 4.64342L100.617 0.284091H99.0175L98.0221 4.64284C97.8327 5.63901 97.6435 6.64858 97.4685 7.65789L97.4481 7.77557H97.1454L97.1295 7.65172C97.0327 6.89964 96.9344 6.1476 96.8368 5.40124C96.8033 5.14448 96.7698 4.8884 96.7365 4.63322L96.0982 0.284091H94.1839Z" fill="white"/>
<path d="M114.945 8.65232C117.286 6.47858 118.933 4.93219 118.933 3.65271C118.933 2.77221 118.426 2.29068 117.633 2.29068C116.97 2.29068 116.463 2.73094 116.001 3.21246L114.844 2.08982C115.754 1.13778 116.608 0.65625 117.922 0.65625C119.729 0.65625 120.958 1.79265 120.958 3.52339C120.958 5.04226 119.513 6.66018 118.023 8.19556C118.485 8.13777 119.121 8.08274 119.555 8.08274H121.406V9.84375H114.945V8.65232Z" fill="white"/>
<path fill-rule="evenodd" clip-rule="evenodd" d="M115.217 1.63145L116.128 2.59823C116.546 2.1358 117.039 1.70026 117.684 1.70026C118.089 1.70026 118.435 1.83541 118.681 2.10907C118.925 2.38215 119.053 2.77572 119.053 3.26026C119.053 3.98136 118.632 4.75111 117.96 5.6043C117.293 6.45217 116.353 7.41203 115.259 8.52288V9.55751H121.14V8.01182H119.512C119.107 8.01182 118.508 8.06827 118.071 8.12803L117.699 8.1789L117.958 7.8873C118.666 7.08877 119.358 6.27605 119.872 5.46864C120.387 4.65941 120.713 3.87284 120.713 3.12573C120.713 2.2601 120.433 1.55338 119.955 1.06274C119.476 0.571489 118.789 0.286239 117.958 0.286239C117.351 0.286239 116.856 0.4076 116.409 0.645605C115.992 0.867602 115.611 1.19434 115.217 1.63145ZM116.291 0.389148C116.779 0.129097 117.316 0 117.958 0C118.846 0 119.603 0.305832 120.139 0.855773C120.675 1.40633 120.98 2.19091 120.98 3.12573C120.98 3.95865 120.618 4.80364 120.092 5.63027C119.627 6.36037 119.024 7.08969 118.403 7.79924C118.779 7.7578 119.198 7.72558 119.512 7.72558H121.406V9.84375H114.993V8.39955L115.034 8.35719C116.15 7.22474 117.092 6.26324 117.757 5.41946C118.425 4.57026 118.787 3.87017 118.787 3.26026C118.787 2.82883 118.674 2.51396 118.489 2.30759C118.304 2.1018 118.033 1.9865 117.684 1.9865C117.115 1.9865 116.668 2.39811 116.227 2.90046L116.134 3.00705L114.844 1.63816L114.933 1.53644C115.372 1.03416 115.804 0.648436 116.291 0.389148Z" fill="white"/>
<path d="M123.375 5.21623C123.375 2.20416 124.692 0.65625 126.656 0.65625C128.621 0.65625 129.937 2.20416 129.937 5.21623C129.937 8.2283 128.621 9.84375 126.656 9.84375C124.692 9.84375 123.375 8.2256 123.375 5.21623ZM127.931 5.21623C127.931 2.79036 127.382 2.24738 126.659 2.24738C125.936 2.24738 125.387 2.79036 125.387 5.21623C125.387 7.6421 125.95 8.25532 126.659 8.25532C127.368 8.25532 127.931 7.62859 127.931 5.21623Z" fill="white"/>
<path fill-rule="evenodd" clip-rule="evenodd" d="M124.485 1.42059C123.956 2.18278 123.644 3.33636 123.644 4.88673C123.644 6.43558 123.956 7.6075 124.486 8.38816C125.012 9.16349 125.758 9.56258 126.656 9.56258C127.555 9.56258 128.301 9.16413 128.827 8.38919C129.356 7.60891 129.669 6.43702 129.669 4.88673C129.669 3.33636 129.356 2.18278 128.827 1.42059C128.302 0.663871 127.557 0.28117 126.656 0.28117C125.756 0.28117 125.01 0.663871 124.485 1.42059ZM124.268 1.25544C124.845 0.422849 125.673 0 126.656 0C127.639 0 128.467 0.422849 129.045 1.25544C129.619 2.08256 129.937 3.30205 129.937 4.88673C129.937 6.47148 129.619 7.70781 129.046 8.55198C128.469 9.40151 127.641 9.84375 126.656 9.84375C125.671 9.84375 124.843 9.40074 124.267 8.5509C123.694 7.7064 123.375 6.4701 123.375 4.88673C123.375 3.30205 123.694 2.08256 124.268 1.25544ZM126.107 1.80396C126.279 1.69516 126.468 1.65609 126.659 1.65609C126.85 1.65609 127.038 1.69516 127.211 1.80396C127.384 1.91286 127.531 2.08486 127.649 2.33199C127.882 2.81969 128.013 3.6201 128.013 4.88673C128.013 6.14747 127.879 6.96458 127.645 7.47098C127.527 7.7267 127.381 7.90881 127.21 8.02628C127.038 8.14422 126.85 8.19047 126.659 8.19047C126.468 8.19047 126.28 8.14536 126.108 8.02864C125.937 7.91232 125.791 7.73146 125.673 7.47644C125.439 6.97162 125.305 6.15433 125.305 4.88673C125.305 3.6201 125.436 2.81969 125.669 2.33199C125.787 2.08486 125.933 1.91286 126.107 1.80396ZM125.909 2.45773C125.705 2.88384 125.573 3.62845 125.573 4.88673C125.573 6.14403 125.709 6.90831 125.915 7.35385C126.017 7.57401 126.133 7.71052 126.255 7.79277C126.375 7.87464 126.51 7.9093 126.659 7.9093C126.807 7.9093 126.942 7.87402 127.063 7.79118C127.184 7.70788 127.301 7.56998 127.403 7.34876C127.609 6.9013 127.745 6.13683 127.745 4.88673C127.745 3.62845 127.612 2.88384 127.409 2.45773C127.309 2.24796 127.194 2.12087 127.073 2.0449C126.952 1.96883 126.815 1.93726 126.659 1.93726C126.503 1.93726 126.366 1.96883 126.245 2.0449C126.124 2.12087 126.009 2.24796 125.909 2.45773Z" fill="white"/>
<path d="M132.007 8.65232C134.349 6.47858 135.996 4.93219 135.996 3.65271C135.996 2.77221 135.489 2.29068 134.696 2.29068C134.032 2.29068 133.525 2.73094 133.063 3.21246L131.906 2.08982C132.817 1.13778 133.671 0.65625 134.984 0.65625C136.791 0.65625 138.021 1.79265 138.021 3.52339C138.021 5.04226 136.575 6.66018 135.085 8.19556C135.547 8.13777 136.183 8.08274 136.617 8.08274H138.469V9.84375H132.007V8.65232Z" fill="white"/>
<path fill-rule="evenodd" clip-rule="evenodd" d="M132.279 1.63145L133.19 2.59823C133.608 2.1358 134.101 1.70026 134.746 1.70026C135.151 1.70026 135.498 1.83541 135.743 2.10907C135.988 2.38215 136.116 2.77572 136.116 3.26026C136.116 3.98136 135.694 4.75111 135.023 5.6043C134.355 6.45217 133.416 7.41203 132.321 8.52288V9.55751H138.202V8.01182H136.574C136.169 8.01182 135.571 8.06827 135.133 8.12803L134.761 8.1789L135.02 7.8873C135.729 7.08877 136.42 6.27605 136.935 5.46864C137.45 4.65941 137.776 3.87284 137.776 3.12573C137.776 2.2601 137.496 1.55338 137.017 1.06274C136.539 0.571489 135.851 0.286239 135.021 0.286239C134.414 0.286239 133.919 0.4076 133.472 0.645605C133.055 0.867602 132.674 1.19434 132.279 1.63145ZM133.353 0.389148C133.842 0.129097 134.378 0 135.021 0C135.909 0 136.666 0.305832 137.201 0.855773C137.738 1.40633 138.042 2.19091 138.042 3.12573C138.042 3.95865 137.681 4.80364 137.154 5.63027C136.689 6.36037 136.087 7.08969 135.465 7.79924C135.841 7.7578 136.261 7.72558 136.574 7.72558H138.469V9.84375H132.055V8.39955L132.097 8.35719C133.212 7.22474 134.155 6.26324 134.819 5.41946C135.488 4.57026 135.849 3.87017 135.849 3.26026C135.849 2.82883 135.736 2.51396 135.551 2.30759C135.367 2.1018 135.096 1.9865 134.746 1.9865C134.177 1.9865 133.731 2.39811 133.29 2.90046L133.196 3.00705L131.906 1.63816L131.995 1.53644C132.434 1.03416 132.867 0.648436 133.353 0.389148Z" fill="white"/>
<path d="M141.387 7.2608C141.932 7.75868 142.578 8.15479 143.354 8.15479C144.287 8.15479 144.89 7.67341 144.89 6.74916C144.89 5.82491 144.3 5.35728 143.454 5.35728C142.923 5.35728 142.65 5.47006 142.105 5.81115L141.156 5.21424L141.414 0.65625H146.585V2.41673H143.24L143.081 4.10569C143.427 3.9489 143.727 3.89388 144.1 3.89388C145.664 3.89388 147 4.77412 147 6.69139C147 8.60866 145.436 9.84375 143.655 9.84375C142.16 9.84375 141.156 9.29085 140.438 8.58116L141.387 7.2608Z" fill="white"/>
<path fill-rule="evenodd" clip-rule="evenodd" d="M141.416 0.65625H146.605V2.63263H143.403L143.284 3.932C143.551 3.83572 143.806 3.79976 144.102 3.79976C144.872 3.79976 145.597 4.02026 146.132 4.49299C146.669 4.96812 147 5.6858 147 6.64949C147 8.59711 145.436 9.84375 143.678 9.84375C142.215 9.84375 141.224 9.29039 140.517 8.57875L140.438 8.49896L141.495 7.00124L141.605 7.10424C142.115 7.57793 142.7 7.93681 143.391 7.93681C143.814 7.93681 144.145 7.82571 144.369 7.62483C144.59 7.42601 144.723 7.12417 144.723 6.70558C144.723 6.28598 144.593 5.98662 144.384 5.79121C144.173 5.59432 143.866 5.4877 143.487 5.4877C143.244 5.4877 143.068 5.51379 142.893 5.57622C142.714 5.6397 142.53 5.74296 142.271 5.90769L142.2 5.95299L141.158 5.28593L141.416 0.65625ZM141.667 0.923328L141.432 5.14463L142.2 5.63688C142.429 5.49416 142.615 5.39158 142.804 5.3244C143.015 5.24928 143.223 5.22062 143.487 5.22062C143.914 5.22062 144.292 5.34102 144.564 5.59549C144.838 5.85144 144.989 6.22779 144.989 6.70558C144.989 7.18437 144.834 7.56492 144.545 7.82413C144.259 8.08129 143.858 8.20389 143.391 8.20389C142.657 8.20389 142.046 7.8485 141.537 7.40172L140.784 8.46852C141.441 9.09685 142.347 9.57667 143.678 9.57667C145.316 9.57667 146.735 8.42494 146.735 6.64949C146.735 5.75165 146.429 5.11124 145.957 4.69365C145.482 4.27367 144.824 4.06684 144.102 4.06684C143.764 4.06684 143.496 4.1171 143.187 4.26029L142.978 4.35687L143.162 2.36555H146.339V0.923328H141.667Z" fill="white"/>
</svg>
