<svg width="181" height="72" viewBox="0 0 181 72" fill="none" xmlns="http://www.w3.org/2000/svg">
<path d="M14.6399 71.0389L13.4676 65.9767H13.4446L12.2723 71.0389H10.4666L8.44629 63.2183H10.4768L11.5214 68.3009H11.5444L12.6963 63.2183H14.2287L15.3602 68.3239H15.3806L16.4482 63.2183H18.4659L16.3946 71.0389H14.6399Z" fill="white"/>
<path d="M38.4517 71.0389L38.0712 69.9074H35.3536L34.9424 71.0389H32.797L35.936 63.2183H37.5118L40.6176 71.0389H38.4517ZM36.7405 65.66L36.7098 65.6497L35.9053 68.3239H37.545L36.7405 65.66Z" fill="white"/>
<path d="M60.685 71.0389L58.8767 68.5129H58.8562V71.0389H56.9432V63.2183H59.5024C60.3146 63.2183 60.9378 63.323 61.3516 63.5018C62.197 63.8823 62.7895 64.8018 62.7895 65.9128C62.7895 67.149 62.0514 68.163 60.8459 68.375L62.9709 71.0389H60.6875H60.685ZM59.5969 67.149C60.3887 67.149 60.874 66.7786 60.874 66.0278C60.874 65.3509 60.3657 64.9704 59.6174 64.9704H58.8562V67.1464H59.5969V67.149Z" fill="white"/>
<path d="M83.9168 65.5473C83.8351 65.0058 83.6104 64.8117 83.2324 64.8117C82.8748 64.8117 82.5683 65.0671 82.5683 65.4043C82.5683 65.8538 82.9769 66.0581 83.8045 66.4157C85.4672 67.1308 85.886 67.7336 85.886 68.722C85.886 70.1804 84.8874 71.0386 83.2528 71.0386C81.6182 71.0386 80.5276 70.1804 80.5276 68.5585V68.3951H82.4457C82.4559 69.0183 82.7599 69.4244 83.2426 69.4244C83.641 69.4244 83.9679 69.1077 83.9679 68.7016C83.9679 68.0988 83.1302 67.8332 82.4483 67.5599C81.2121 67.0593 80.6527 66.4055 80.6527 65.4272C80.6527 64.1425 81.8966 63.2026 83.286 63.2026C83.7866 63.2026 84.2233 63.315 84.6218 63.5193C85.4263 63.9382 85.8171 64.541 85.8247 65.5498H83.9168V65.5473Z" fill="white"/>
<path d="M108.201 71.0389L107.82 69.9074H105.105L104.692 71.0389H102.546L105.685 63.2183H107.259L110.367 71.0389H108.201ZM106.487 65.66L106.454 65.6497L105.652 68.3239H107.289L106.487 65.66Z" fill="white"/>
<path d="M130.892 71.0389L129.717 65.9767H129.696L128.524 71.0389H126.716L124.698 63.2183H126.726L127.773 68.3009H127.793L128.945 63.2183H130.48L131.609 68.3239H131.63L132.697 63.2183H134.715L132.646 71.0389H130.892Z" fill="white"/>
<path d="M19.0075 55.4742H6.69169L0 16.1899H11.3095L14.3897 46.3714L34.4699 0.474609C39.5576 0.474609 42.9009 5.78454 40.7018 10.3717L19.0075 55.4742Z" fill="white"/>
<path d="M74.339 27.7752L71.6725 44.4892C70.6075 51.3469 66.3473 55.4768 59.6888 55.4768H44.3081C38.2473 55.4768 35.5195 51.0812 35.5195 46.6193C35.5195 45.8224 35.6523 44.8876 35.7852 43.9553L38.4491 27.1776C39.3813 21.2496 42.8421 16.1899 50.4992 16.1899H65.8799C70.4747 16.1899 74.6021 19.2548 74.6021 25.1113C74.6021 25.9108 74.4692 26.843 74.3364 27.7752M63.7472 31.7034C63.8162 31.236 64.0793 29.7061 64.0793 28.6411C64.0793 27.0422 63.3462 25.5123 60.8841 25.5123H50.0318C49.3652 25.5123 48.4994 25.9108 48.3666 26.843L46.2364 40.6248C46.1675 41.0922 46.1036 41.8252 46.1036 42.2237C46.1036 44.2874 47.1687 45.4878 49.2988 45.4878H60.2839C60.8841 45.4878 61.6171 45.1532 61.7499 44.2235L63.7472 31.706V31.7034Z" fill="white"/>
<path d="M91.3824 55.4742H75.3888L81.6463 16.1899H91.9673L87.2397 45.8198H102.687C101.806 51.3801 97.0116 55.4742 91.3799 55.4742" fill="white"/>
<path d="M141.085 44.4892C140.551 47.7507 138.421 55.4768 129.099 55.4768H114.451C113.253 55.4768 106.127 54.5446 106.127 46.6193C106.127 45.8224 106.26 44.8876 106.393 43.9579L110.786 16.1899H121.043L117.314 39.6951C117.181 40.561 117.046 41.5596 117.046 41.9606C117.046 43.5569 117.447 45.4878 120.244 45.4878H129.364C129.63 45.4878 130.695 45.4878 130.897 44.2235L135.356 16.1899H145.611L141.082 44.4892H141.085Z" fill="white"/>
<path d="M157.903 38.1092H164.34C167.537 38.1092 169.67 36.7734 170.265 32.9091C170.467 31.512 170.937 29.6424 170.937 28.0486C170.937 25.584 169.338 24.5802 166.472 24.5802H149.794L151.081 16.1875H170.074C175.8 16.1875 181 18.716 181 26.1152C181 28.5799 180.397 31.3792 179.996 33.6421C178.134 45.0997 166.94 46.4993 163.206 46.4993H155.942L152.703 61.6297C151.896 67.1159 147.186 71.1871 141.634 71.1871L147.725 38.1066H157.906L157.903 38.1092Z" fill="white"/>
</svg>
